<?xml version="1.0" standalone="no"?>
<!DOCTYPE svg PUBLIC "-//W3C//DTD SVG 20010904//EN"
 "http://www.w3.org/TR/2001/REC-SVG-20010904/DTD/svg10.dtd">
<svg version="1.0" xmlns="http://www.w3.org/2000/svg"
 width="270.000000pt" height="186.000000pt" viewBox="0 0 270.000000 186.000000"
 preserveAspectRatio="xMidYMid meet">

<g transform="translate(0.000000,186.000000) scale(0.100000,-0.100000)"
fill="#000000" stroke="none">
<path d="M1127 1323 c-69 -23 -130 -87 -175 -181 -36 -75 -37 -80 -37 -197 0
-116 1 -123 33 -187 41 -84 106 -143 222 -200 81 -40 90 -43 190 -46 121 -5
163 4 240 50 64 39 154 149 172 211 6 23 12 85 12 137 1 85 -2 102 -29 160
-40 89 -68 124 -139 174 -80 56 -148 76 -298 86 -150 11 -133 12 -191 -7z m93
-53 c0 -7 25 -9 73 -4 175 16 330 -67 401 -216 26 -56 31 -76 31 -145 0 -70
-4 -87 -29 -133 -17 -29 -58 -80 -93 -112 -73 -69 -129 -90 -237 -90 -64 0
-80 4 -166 47 -111 55 -171 110 -207 189 -23 50 -25 66 -21 147 3 78 9 102 35
157 44 90 84 132 150 156 47 16 63 17 63 4z"/>
<path d="M1112 1187 c-20 -23 -24 -63 -8 -76 31 -26 79 31 62 74 -7 18 -40 20
-54 2z"/>
<path d="M1549 1083 c-13 -36 -8 -57 17 -61 29 -4 58 31 50 63 -9 36 -53 35
-67 -2z"/>
<path d="M1274 676 c-12 -32 14 -43 112 -51 69 -5 99 -4 107 5 18 18 -16 37
-76 45 -29 3 -71 9 -94 12 -34 4 -44 2 -49 -11z"/>
</g>
</svg>
